{
  "accessors": [
    {
      "bufferView": 2,
      "componentType": 5126,
      "count": 9216,
      "max": [
        1.6102221012115479,
        4.0483465194702148,
        5.4904537200927734
      ],
      "min": [
        -2.311894416809082,
        -0.8118058443069458,
        -0.50268518924713135
      ],
      "type": "VEC3"
    },
    {
      "bufferView": 2,
      "byteOffset": 110592,
      "componentType": 5126,
      "count": 9216,
      "max": [
        0.9999459981918335,
        0.99751722812652588,
        0.99630117416381836
      ],
      "min": [
        -0.9999459981918335,
        -0.99976229667663574,
        -0.99705713987350464
      ],
      "type": "VEC3"
    },
    {
      "bufferView": 3,
      "componentType": 5126,
      "count": 9216,
      "max": [
        0,
        0,
        0,
        1
      ],
      "min": [
        0,
        0,
        0,
        1
      ],
      "type": "VEC4"
    },
    {
      "bufferView": 1,
      "componentType": 5126,
      "count": 9216,
      "max": [
        0,
        0
      ],
      "min": [
        0,
        0
      ],
      "type": "VEC2"
    },
    {
      "bufferView": 0,
      "componentType": 5125,
      "count": 55296,
      "max": [
        9215
      ],
      "min": [
        0
      ],
      "type": "SCALAR"
    },
    {
      "bufferView": 2,
      "byteOffset": 221184,
      "componentType": 5126,
      "count": 65532,
      "max": [
        1.567365288734436,
        4.2809686660766602,
        4.1835923194885254
      ],
      "min": [
        -3.6463170051574707,
        -1.6606988906860352,
        -0.58317703008651733
      ],
      "type": "VEC3"
    },
    {
      "bufferView": 2,
      "byteOffset": 1007568,
      "componentType": 5126,
      "count": 65532,
      "max": [
        0.9993864893913269,
        0.99995481967926025,
        0.99998080730438232
      ],
      "min": [
        -0.99938678741455078,
        -0.99995523691177368,
        -0.99998080730438232
      ],
      "type": "VEC3"
    },
    {
      "bufferView": 3,
      "byteOffset": 147456,
      "componentType": 5126,
      "count": 65532,
      "max": [
        0.99971812963485718,
        0.53633272647857666,
        0.84865856170654297,
        1
      ],
      "min": [
        -0.99996966123580933,
        -0.99999016523361206,
        -0.8458172082901001,
        -1
      ],
      "type": "VEC4"
    },
    {
      "bufferView": 1,
      "byteOffset": 73728,
      "componentType": 5126,
      "count": 65532,
      "max": [
        0.74379372596740723,
        0.90603053569793701
      ],
      "min": [
        0.27334895730018616,
        0.090517044067382812
      ],
      "type": "VEC2"
    },
    {
      "bufferView": 0,
      "byteOffset": 221184,
      "componentType": 5125,
      "count": 98298,
      "max": [
        65531
      ],
      "min": [
        0
      ],
      "type": "SCALAR"
    },
    {
      "bufferView": 2,
      "byteOffset": 1793952,
      "componentType": 5126,
      "count": 65532,
      "max": [
        3.4296095371246338,
        5.1047215461730957,
        6.2122673988342285
      ],
      "min": [
        -1.4997671842575073,
        -0.83984267711639404,
        -0.58317703008651733
      ],
      "type": "VEC3"
    },
    {
      "bufferView": 2,
      "byteOffset": 2580336,
      "componentType": 5126,
      "count": 65532,
      "max": [
        0.99067658185958862,
        0.99988657236099243,
        0.9997105598449707
      ],
      "min": [
        -0.99952447414398193,
        -0.99988681077957153,
        -0.99970990419387817
      ],
      "type": "VEC3"
    },
    {
      "bufferView": 3,
      "byteOffset": 1195968,
      "componentType": 5126,
      "count": 65532,
      "max": [
        0.9997565746307373,
        0.99682116508483887,
        0.38906154036521912,
        1
      ],
      "min": [
        -0.99994963407516479,
        -0.72240591049194336,
        -0.97453469038009644,
        -1
      ],
      "type": "VEC4"
    },
    {
      "bufferView": 1,
      "byteOffset": 597984,
      "componentType": 5126,
      "count": 65532,
      "max": [
        0.74379372596740723,
        0.90603053569793701
      ],
      "min": [
        0.27334895730018616,
        0.090517044067382812
      ],
      "type": "VEC2"
    },
    {
      "bufferView": 0,
      "byteOffset": 614376,
      "componentType": 5125,
      "count": 98298,
      "max": [
        65531
      ],
      "min": [
        0
      ],
      "type": "SCALAR"
    },
    {
      "bufferView": 2,
      "byteOffset": 3366720,
      "componentType": 5126,
      "count": 54408,
      "max": [
        2.4826767444610596,
        4.3062343597412109,
        6.2030353546142578
      ],
      "min": [
        -3.4381887912750244,
        -1.6404044628143311,
        2.2733874320983887
      ],
      "type": "VEC3"
    },
    {
      "bufferView": 2,
      "byteOffset": 4019616,
      "componentType": 5126,
      "count": 54408,
      "max": [
        0.99999338388442993,
        0.99990826845169067,
        0.99760085344314575
      ],
      "min": [
        -0.99999338388442993,
        -0.99990814924240112,
        -0.99808299541473389
      ],
      "type": "VEC3"
    },
    {
      "bufferView": 3,
      "byteOffset": 2244480,
      "componentType": 5126,
      "count": 54408,
      "max": [
        0.96588033437728882,
        0.95283108949661255,
        0.57945376634597778,
        1
      ],
      "min": [
        -0.88742661476135254,
        -0.99698257446289062,
        -0.96515363454818726,
        -1
      ],
      "type": "VEC4"
    },
    {
      "bufferView": 1,
      "byteOffset": 1122240,
      "componentType": 5126,
      "count": 54408,
      "max": [
        0.74379372596740723,
        0.90603053569793701
      ],
      "min": [
        0.27334895730018616,
        0.090517044067382812
      ],
      "type": "VEC2"
    },
    {
      "bufferView": 0,
      "byteOffset": 1007568,
      "componentType": 5125,
      "count": 81612,
      "max": [
        54407
      ],
      "min": [
        0
      ],
      "type": "SCALAR"
    }
  ],
  "asset": {
    "extras": {
      "author": "sligocreatures (https://sketchfab.com/sligocreatures)",
      "license": "CC-BY-NC-4.0 (http://creativecommons.org/licenses/by-nc/4.0/)",
      "source": "https://sketchfab.com/3d-models/prayer-plant-236bd37aa47b43e49c34360b3d5b854f",
      "title": "Prayer Plant"
    },
    "generator": "Sketchfab-6.44.0",
    "version": "2.0"
  },
  "bufferViews": [
    {
      "buffer": 0,
      "byteLength": 1334016,
      "byteOffset": 0,
      "name": "floatBufferViews",
      "target": 34963
    },
    {
      "buffer": 0,
      "byteLength": 1557504,
      "byteOffset": 1334016,
      "byteStride": 8,
      "name": "floatBufferViews",
      "target": 34962
    },
    {
      "buffer": 0,
      "byteLength": 4672512,
      "byteOffset": 2891520,
      "byteStride": 12,
      "name": "floatBufferViews",
      "target": 34962
    },
    {
      "buffer": 0,
      "byteLength": 3115008,
      "byteOffset": 7564032,
      "byteStride": 16,
      "name": "floatBufferViews",
      "target": 34962
    }
  ],
  "buffers": [
    {
      "byteLength": 10679040,
      "uri": "scene.bin"
    }
  ],
  "extensionsRequired": [
    "KHR_materials_pbrSpecularGlossiness"
  ],
  "extensionsUsed": [
    "KHR_materials_pbrSpecularGlossiness"
  ],
  "images": [
    {
      "uri": "textures/prayer_leaf_diffuse.png"
    },
    {
      "uri": "textures/prayer_leaf_specularGlossiness.png"
    },
    {
      "uri": "textures/prayer_leaf_normal.png"
    },
    {
      "uri": "textures/prayer_leaf_occlusion.png"
    }
  ],
  "materials": [
    {
      "doubleSided": true,
      "emissiveFactor": [
        0,
        0,
        0
      ],
      "extensions": {
        "KHR_materials_pbrSpecularGlossiness": {
          "diffuseFactor": [
            0.060924595200489026,
            0.13788420204419904,
            0.079080493855388109,
            1
          ],
          "glossinessFactor": 0.042294850537622566,
          "specularFactor": [
            0,
            0,
            0
          ]
        }
      },
      "name": "stem_2"
    },
    {
      "doubleSided": true,
      "emissiveFactor": [
        0,
        0,
        0
      ],
      "extensions": {
        "KHR_materials_pbrSpecularGlossiness": {
          "diffuseFactor": [
            1,
            1,
            1,
            1
          ],
          "diffuseTexture": {
            "index": 0,
            "texCoord": 0
          },
          "glossinessFactor": 1,
          "specularFactor": [
            0.03830030487804878,
            0.03830030487804878,
            0.03830030487804878
          ],
          "specularGlossinessTexture": {
            "index": 1,
            "texCoord": 0
          }
        }
      },
      "name": "prayer_leaf",
      "normalTexture": {
        "index": 2,
        "scale": 1,
        "texCoord": 0
      },
      "occlusionTexture": {
        "index": 3,
        "strength": 1,
        "texCoord": 0
      }
    }
  ],
  "meshes": [
    {
      "name": "PRAYER 2_stem 2_0",
      "primitives": [
        {
          "attributes": {
            "NORMAL": 1,
            "POSITION": 0,
            "TANGENT": 2,
            "TEXCOORD_0": 3
          },
          "indices": 4,
          "material": 0,
          "mode": 4
        }
      ]
    },
    {
      "name": "PRAYER 2_prayer leaf_0",
      "primitives": [
        {
          "attributes": {
            "NORMAL": 6,
            "POSITION": 5,
            "TANGENT": 7,
            "TEXCOORD_0": 8
          },
          "indices": 9,
          "material": 1,
          "mode": 4
        }
      ]
    },
    {
      "name": "PRAYER 2_prayer leaf_0",
      "primitives": [
        {
          "attributes": {
            "NORMAL": 11,
            "POSITION": 10,
            "TANGENT": 12,
            "TEXCOORD_0": 13
          },
          "indices": 14,
          "material": 1,
          "mode": 4
        }
      ]
    },
    {
      "name": "PRAYER 2_prayer leaf_0",
      "primitives": [
        {
          "attributes": {
            "NORMAL": 16,
            "POSITION": 15,
            "TANGENT": 17,
            "TEXCOORD_0": 18
          },
          "indices": 19,
          "material": 1,
          "mode": 4
        }
      ]
    }
  ],
  "nodes": [
    {
      "children": [
        1
      ],
      "name": "RootNode (gltf orientation matrix)",
      "rotation": [
        -0.70710678118654746,
        -0,
        -0,
        0.70710678118654757
      ]
    },
    {
      "children": [
        2
      ],
      "name": "RootNode (model correction matrix)"
    },
    {
      "children": [
        3
      ],
      "matrix": [
        1,
        0,
        0,
        0,
        0,
        0,
        1,
        0,
        0,
        -1,
        0,
        0,
        0,
        0,
        0,
        1
      ],
      "name": "d0348b1cf7e8476da909069d283b980b.fbx"
    },
    {
      "children": [
        4
      ],
      "name": "RootNode"
    },
    {
      "children": [
        5,
        6,
        7,
        8
      ],
      "matrix": [
        38.386742836235513,
        -11.384178278547575,
        105.14512057972678,
        0,
        92.443691438613428,
        57.947311729819759,
        -27.47564191912241,
        0,
        -51.373737296617257,
        95.766127633863817,
        29.124405348411969,
        0,
        1076.774658203125,
        -69.026535034179688,
        -389.55609130859375,
        1
      ],
      "name": "PRAYER 2"
    },
    {
      "mesh": 0,
      "name": "PRAYER 2_stem 2_0"
    },
    {
      "mesh": 1,
      "name": "PRAYER 2_prayer leaf_0"
    },
    {
      "mesh": 2,
      "name": "PRAYER 2_prayer leaf_0"
    },
    {
      "mesh": 3,
      "name": "PRAYER 2_prayer leaf_0"
    }
  ],
  "samplers": [
    {
      "magFilter": 9729,
      "minFilter": 9987,
      "wrapS": 10497,
      "wrapT": 10497
    }
  ],
  "scene": 0,
  "scenes": [
    {
      "name": "OSG_Scene",
      "nodes": [
        0
      ]
    }
  ],
  "textures": [
    {
      "sampler": 0,
      "source": 0
    },
    {
      "sampler": 0,
      "source": 1
    },
    {
      "sampler": 0,
      "source": 2
    },
    {
      "sampler": 0,
      "source": 3
    }
  ]
}

